<svg
  xmlns="http://www.w3.org/2000/svg"
  xml:space="preserve"
  viewBox="0 0 512 512"
>
  <path
    d="M737.794 1417.45c28.331 72.32 301.956-278.82 274.456-294.37-74.825-42.34-122.77-82.61-179.281-130.594-96.279-81.746-112.615-111.299-121.736-132.803-8.281-19.526-13.021-38.088-17.707-68.615-18.357-119.587-4.091-215.578 15.494-418.328a12584.53 12584.53 0 0 0 6.64-70.828c18.146-9.814 24.014-31.742 15.494-46.48-10.234-17.703-37.398-18.411-50.908-6.641-14.035 12.23-9.477 34.57-8.853 37.627 2.214 10.855 7.806 18.372 11.066 22.134a79549.93 79549.93 0 0 1-17.706 203.631c-1.152 13.071.451-5.145-15.494 130.589-2.202 18.743-6.302 53.734-19.92 97.389-18.278 58.589-33.024 66.506-37.628 68.614-8.951 4.101-27.781 8.339-84.108-26.56-32.698-20.259-95.338-64.43-185.924-181.497a1464.876 1464.876 0 0 1-26.56-35.414c.23-4.565.022-13.081-4.427-22.134-2.147-4.367-10.002-20.35-26.561-22.133-12.381-1.334-26.516 5.606-30.987 17.707-5.777 15.635 7.821 31.115 17.707 37.627 9.638 6.349 19.678 6.761 24.347 6.64l203.631 245.685c-5.095 1.196-63.286 15.843-81.895 68.615-14.598 41.396 4.846 78.785 11.067 90.748 18.617 35.801 43.973 46.081 79.682 73.041 49.046 37.03 77.702 77.07 135.015 157.15 13.51 18.88 44.344 63.16 77.469 123.95 19.318 35.45 28.978 53.18 37.627 75.25Z"
    transform="matrix(-.39536 .3535 -.31841 -.35612 769.421 318.033)"
    style="currentColor"
  />
</svg>
