<svg
        xmlns="http://www.w3.org/2000/svg"
        xml:space="preserve"
        viewBox="0 0 512 512"
>
  <path
    d="M772.384 1457.402c38.534 62.791 106.912-132.656 256.196-318.112-74.825-42.34-139.1-98.82-195.611-146.804-96.279-81.746-112.615-111.299-121.736-132.803-8.281-19.526-13.021-38.088-17.707-68.615-18.357-119.587-4.091-215.578 15.494-418.328 2.28-23.603 4.493-47.212 6.64-70.828-29.347 2.012-32.251 1.488-33.201 6.64a79701.333 79701.333 0 0 1-17.706 203.631c-1.152 13.071.451-5.145-15.494 130.589-2.202 18.743-6.302 53.734-19.92 97.389-18.278 58.589-33.024 66.506-37.628 68.614-8.951 4.101-27.781 8.339-84.108-26.56-32.698-20.259-95.338-64.43-185.924-181.497a1463.334 1463.334 0 0 1-26.56-35.414c.23-4.565-24.59 17.828-19.921 17.707l203.631 245.685c-5.095 1.196-63.286 15.843-81.895 68.615-14.598 41.396 4.846 78.785 11.067 90.748 18.617 35.801 43.973 46.081 79.682 73.041 49.046 37.03 77.702 77.07 135.015 157.15 13.51 18.88 41.067 65.515 77.469 123.95 21.98 35.285 56.28 89.232 72.217 115.202Z"
    style="fill: #707070; fill-rule: nonzero"
    transform="matrix(-.39536 .3535 -.31841 -.35612 769.421 318.033)"
  />
    <g>
      <circle
              cx="209"
              cy="29"
              r="29"
              style="fill: #fff"
              transform="translate(187.588 429.502)"
      />
      <circle cx="309" cy="457" r="10" transform="translate(87.588 11.502)"/>
    </g>
    <g>
      <circle
              cx="209"
              cy="29"
              r="29"
              style="fill: #fff"
              transform="translate(266.588 186.502)"
      />
      <circle cx="309" cy="457" r="10" transform="translate(166.588 -231.498)"/>
    </g>
</svg>
