<svg
  xmlns="http://www.w3.org/2000/svg"
  xml:space="preserve"
  viewBox="0 0 480 400"
>
  <path
    d="M.165 0C-.203 65.65.159 174.186.167 206.739c43.064-11.372 89.46-14.98 127.081-17.868 64.094-4.923 79.962-.174 90.415 4.26 9.492 4.026 17.276 8.961 28.849 18.176 45.335 36.098 70.259 75.325 127.074 154.452a5448.212 5448.212 0 0 0 19.927 27.57c10.962-11.09 12.277-11.93 11.012-14.101a34309.669 34309.669 0 0 1-57.838-78.776c-3.706-5.062 1.46 1.992-35.455-51.982-5.097-7.454-14.618-21.364-23.134-41.724-11.429-27.326-8.12-35.358-6.971-37.737 2.233-4.624 8.328-12.79 41.71-20.273 19.378-4.344 58.208-10.757 131.297-1.09a711.794 711.794 0 0 1 21.777 3.223c1.363 1.707 4.046-15.042 2.238-13.348l-158.736-15.51c1.634-2.227 19.976-28.013 10.53-53.385-7.409-19.902-27.001-26.344-33.27-28.405-18.76-6.168-32.058-.866-54.76 2.156-31.182 4.151-55.26.022-103.418-8.236-11.353-1.948-37.097-8.814-70.095-16.756C68.4 17.385.165-.003.165 0Z"
    style="fill: currentColor;"
  />
</svg>
